<mxfile host="app.diagrams.net" agent="Mozilla/5.0 (Windows NT 10.0; Win64; x64) AppleWebKit/537.36 (KHTML, like Gecko) Chrome/141.0.0.0 Safari/537.36" version="28.2.8">
  <diagram name="Równanie kwadratowe" id="_BCTwVajq-oPa0xT4Vhi">
    <mxGraphModel dx="1783" dy="971" grid="1" gridSize="10" guides="1" tooltips="1" connect="1" arrows="1" fold="1" page="1" pageScale="1" pageWidth="827" pageHeight="1169" math="0" shadow="0">
      <root>
        <mxCell id="0" />
        <mxCell id="1" parent="0" />
        <mxCell id="qHStDZmqYdV4NOPsDdrF-3" value="Start" style="ellipse;whiteSpace=wrap;html=1;aspect=fixed;" vertex="1" parent="1">
          <mxGeometry x="400" y="10" width="80" height="80" as="geometry" />
        </mxCell>
        <mxCell id="qHStDZmqYdV4NOPsDdrF-4" value="Wczytaj a, b, c" style="rounded=0;whiteSpace=wrap;html=1;" vertex="1" parent="1">
          <mxGeometry x="385" y="130" width="110" height="60" as="geometry" />
        </mxCell>
        <mxCell id="qHStDZmqYdV4NOPsDdrF-5" value="" style="endArrow=classic;html=1;rounded=0;exitX=0.5;exitY=1;entryX=0.5;entryY=0;" edge="1" parent="1" source="qHStDZmqYdV4NOPsDdrF-3" target="qHStDZmqYdV4NOPsDdrF-4">
          <mxGeometry width="50" height="50" relative="1" as="geometry">
            <mxPoint x="440" y="170" as="sourcePoint" />
            <mxPoint x="490" y="120" as="targetPoint" />
          </mxGeometry>
        </mxCell>
        <mxCell id="qHStDZmqYdV4NOPsDdrF-6" value="a = 0?" style="rhombus;whiteSpace=wrap;html=1;" vertex="1" parent="1">
          <mxGeometry x="385" y="200" width="110" height="80" as="geometry" />
        </mxCell>
        <mxCell id="qHStDZmqYdV4NOPsDdrF-7" value="" style="endArrow=classic;html=1;rounded=0;exitX=0.5;exitY=1;entryX=0.5;entryY=0;" edge="1" parent="1" source="qHStDZmqYdV4NOPsDdrF-4" target="qHStDZmqYdV4NOPsDdrF-6">
          <mxGeometry width="50" height="50" relative="1" as="geometry">
            <mxPoint x="440" y="250" as="sourcePoint" />
            <mxPoint x="490" y="200" as="targetPoint" />
          </mxGeometry>
        </mxCell>
        <mxCell id="qHStDZmqYdV4NOPsDdrF-8" value="To równanie liniowe&lt;br&gt;bx + c = 0" style="rounded=0;whiteSpace=wrap;html=1;" vertex="1" parent="1">
          <mxGeometry x="220" y="310" width="120" height="60" as="geometry" />
        </mxCell>
        <mxCell id="qHStDZmqYdV4NOPsDdrF-9" value="Tak" style="endArrow=classic;html=1;rounded=0;exitX=0;exitY=0.5;entryX=0.5;entryY=0;" edge="1" parent="1" source="qHStDZmqYdV4NOPsDdrF-6" target="qHStDZmqYdV4NOPsDdrF-8">
          <mxGeometry width="50" height="50" relative="1" as="geometry">
            <mxPoint x="360" y="310" as="sourcePoint" />
            <mxPoint x="410" y="260" as="targetPoint" />
          </mxGeometry>
        </mxCell>
        <mxCell id="qHStDZmqYdV4NOPsDdrF-10" value="Oblicz Δ = b² - 4ac" style="rounded=0;whiteSpace=wrap;html=1;" vertex="1" parent="1">
          <mxGeometry x="550" y="300" width="120" height="60" as="geometry" />
        </mxCell>
        <mxCell id="qHStDZmqYdV4NOPsDdrF-11" value="Nie" style="endArrow=classic;html=1;rounded=0;exitX=1;exitY=0.5;entryX=0.5;entryY=0;" edge="1" parent="1" source="qHStDZmqYdV4NOPsDdrF-6" target="qHStDZmqYdV4NOPsDdrF-10">
          <mxGeometry width="50" height="50" relative="1" as="geometry">
            <mxPoint x="520" y="310" as="sourcePoint" />
            <mxPoint x="570" y="260" as="targetPoint" />
          </mxGeometry>
        </mxCell>
        <mxCell id="qHStDZmqYdV4NOPsDdrF-12" value="b = 0?" style="rhombus;whiteSpace=wrap;html=1;" vertex="1" parent="1">
          <mxGeometry x="210" y="400" width="110" height="80" as="geometry" />
        </mxCell>
        <mxCell id="qHStDZmqYdV4NOPsDdrF-13" value="" style="endArrow=classic;html=1;rounded=0;exitX=0.5;exitY=1;entryX=0.5;entryY=0;" edge="1" parent="1" source="qHStDZmqYdV4NOPsDdrF-8" target="qHStDZmqYdV4NOPsDdrF-12">
          <mxGeometry width="50" height="50" relative="1" as="geometry">
            <mxPoint x="260" y="430" as="sourcePoint" />
            <mxPoint x="310" y="380" as="targetPoint" />
          </mxGeometry>
        </mxCell>
        <mxCell id="qHStDZmqYdV4NOPsDdrF-14" value="c = 0?" style="rhombus;whiteSpace=wrap;html=1;" vertex="1" parent="1">
          <mxGeometry x="50" y="550" width="110" height="80" as="geometry" />
        </mxCell>
        <mxCell id="qHStDZmqYdV4NOPsDdrF-15" value="Tak" style="endArrow=classic;html=1;rounded=0;exitX=0;exitY=0.5;entryX=0.5;entryY=0;" edge="1" parent="1" source="qHStDZmqYdV4NOPsDdrF-12" target="qHStDZmqYdV4NOPsDdrF-14">
          <mxGeometry width="50" height="50" relative="1" as="geometry">
            <mxPoint x="160" y="490" as="sourcePoint" />
            <mxPoint x="210" y="440" as="targetPoint" />
          </mxGeometry>
        </mxCell>
        <mxCell id="qHStDZmqYdV4NOPsDdrF-16" value="x = -c/b" style="rounded=0;whiteSpace=wrap;html=1;" vertex="1" parent="1">
          <mxGeometry x="350" y="505" width="100" height="60" as="geometry" />
        </mxCell>
        <mxCell id="qHStDZmqYdV4NOPsDdrF-17" value="Nie" style="endArrow=classic;html=1;rounded=0;exitX=1;exitY=0.5;entryX=0.5;entryY=0;" edge="1" parent="1" source="qHStDZmqYdV4NOPsDdrF-12" target="qHStDZmqYdV4NOPsDdrF-16">
          <mxGeometry width="50" height="50" relative="1" as="geometry">
            <mxPoint x="320" y="490" as="sourcePoint" />
            <mxPoint x="370" y="440" as="targetPoint" />
          </mxGeometry>
        </mxCell>
        <mxCell id="qHStDZmqYdV4NOPsDdrF-18" value="Nieskończenie wiele rozwiązań" style="rounded=0;whiteSpace=wrap;html=1;" vertex="1" parent="1">
          <mxGeometry x="20" y="650" width="170" height="60" as="geometry" />
        </mxCell>
        <mxCell id="qHStDZmqYdV4NOPsDdrF-19" value="Tak" style="endArrow=classic;html=1;rounded=0;exitX=0.5;exitY=1;entryX=0.5;entryY=0;" edge="1" parent="1" source="qHStDZmqYdV4NOPsDdrF-14" target="qHStDZmqYdV4NOPsDdrF-18">
          <mxGeometry width="50" height="50" relative="1" as="geometry">
            <mxPoint x="105" y="630" as="sourcePoint" />
            <mxPoint x="155" y="580" as="targetPoint" />
          </mxGeometry>
        </mxCell>
        <mxCell id="qHStDZmqYdV4NOPsDdrF-20" value="Brak rozwiązań" style="rounded=0;whiteSpace=wrap;html=1;" vertex="1" parent="1">
          <mxGeometry x="220" y="650" width="120" height="60" as="geometry" />
        </mxCell>
        <mxCell id="qHStDZmqYdV4NOPsDdrF-21" value="Nie" style="endArrow=classic;html=1;rounded=0;exitX=1;exitY=0.5;entryX=0.5;entryY=0;" edge="1" parent="1" source="qHStDZmqYdV4NOPsDdrF-14" target="qHStDZmqYdV4NOPsDdrF-20">
          <mxGeometry width="50" height="50" relative="1" as="geometry">
            <mxPoint x="185" y="590" as="sourcePoint" />
            <mxPoint x="235" y="540" as="targetPoint" />
          </mxGeometry>
        </mxCell>
        <mxCell id="qHStDZmqYdV4NOPsDdrF-22" value="Δ &amp;gt; 0?" style="rhombus;whiteSpace=wrap;html=1;" vertex="1" parent="1">
          <mxGeometry x="590" y="420" width="110" height="80" as="geometry" />
        </mxCell>
        <mxCell id="qHStDZmqYdV4NOPsDdrF-23" value="" style="endArrow=classic;html=1;rounded=0;exitX=0.5;exitY=1;entryX=0.5;entryY=0;" edge="1" parent="1" source="qHStDZmqYdV4NOPsDdrF-10" target="qHStDZmqYdV4NOPsDdrF-22">
          <mxGeometry width="50" height="50" relative="1" as="geometry">
            <mxPoint x="610" y="430" as="sourcePoint" />
            <mxPoint x="660" y="380" as="targetPoint" />
          </mxGeometry>
        </mxCell>
        <mxCell id="qHStDZmqYdV4NOPsDdrF-24" value="Dwa rozwiązania:&lt;br&gt;x₁ = -b-√Δ/2a&lt;br&gt;x₂ = -b+√Δ/2a" style="rounded=0;whiteSpace=wrap;html=1;" vertex="1" parent="1">
          <mxGeometry x="670" y="505" width="140" height="80" as="geometry" />
        </mxCell>
        <mxCell id="qHStDZmqYdV4NOPsDdrF-25" value="Tak" style="endArrow=classic;html=1;rounded=0;exitX=1;exitY=0.5;entryX=0.5;entryY=0;" edge="1" parent="1" source="qHStDZmqYdV4NOPsDdrF-22" target="qHStDZmqYdV4NOPsDdrF-24">
          <mxGeometry width="50" height="50" relative="1" as="geometry">
            <mxPoint x="670" y="490" as="sourcePoint" />
            <mxPoint x="720" y="440" as="targetPoint" />
          </mxGeometry>
        </mxCell>
        <mxCell id="qHStDZmqYdV4NOPsDdrF-26" value="Δ = 0?" style="rhombus;whiteSpace=wrap;html=1;" vertex="1" parent="1">
          <mxGeometry x="490" y="545" width="110" height="80" as="geometry" />
        </mxCell>
        <mxCell id="qHStDZmqYdV4NOPsDdrF-27" value="Nie" style="endArrow=classic;html=1;rounded=0;exitX=0.5;exitY=1;entryX=0.5;entryY=0;" edge="1" parent="1" source="qHStDZmqYdV4NOPsDdrF-22" target="qHStDZmqYdV4NOPsDdrF-26">
          <mxGeometry width="50" height="50" relative="1" as="geometry">
            <mxPoint x="590" y="530" as="sourcePoint" />
            <mxPoint x="640" y="480" as="targetPoint" />
          </mxGeometry>
        </mxCell>
        <mxCell id="qHStDZmqYdV4NOPsDdrF-28" value="Jedno rozwiązanie:&lt;br&gt;x = -b/2a" style="rounded=0;whiteSpace=wrap;html=1;" vertex="1" parent="1">
          <mxGeometry x="640" y="750" width="140" height="60" as="geometry" />
        </mxCell>
        <mxCell id="qHStDZmqYdV4NOPsDdrF-29" value="Tak" style="endArrow=classic;html=1;rounded=0;exitX=1;exitY=0.5;entryX=0.5;entryY=0;" edge="1" parent="1" source="qHStDZmqYdV4NOPsDdrF-26" target="qHStDZmqYdV4NOPsDdrF-28">
          <mxGeometry width="50" height="50" relative="1" as="geometry">
            <mxPoint x="670" y="590" as="sourcePoint" />
            <mxPoint x="720" y="540" as="targetPoint" />
          </mxGeometry>
        </mxCell>
        <mxCell id="qHStDZmqYdV4NOPsDdrF-30" value="Brak rozwiązań rzeczywistych" style="rounded=0;whiteSpace=wrap;html=1;" vertex="1" parent="1">
          <mxGeometry x="440" y="720" width="140" height="60" as="geometry" />
        </mxCell>
        <mxCell id="qHStDZmqYdV4NOPsDdrF-31" value="Nie" style="endArrow=classic;html=1;rounded=0;exitX=0.5;exitY=1;entryX=0.5;entryY=0;" edge="1" parent="1" source="qHStDZmqYdV4NOPsDdrF-26" target="qHStDZmqYdV4NOPsDdrF-30">
          <mxGeometry width="50" height="50" relative="1" as="geometry">
            <mxPoint x="590" y="630" as="sourcePoint" />
            <mxPoint x="640" y="580" as="targetPoint" />
          </mxGeometry>
        </mxCell>
        <mxCell id="qHStDZmqYdV4NOPsDdrF-32" value="Wyświetl wynik" style="rounded=0;whiteSpace=wrap;html=1;" vertex="1" parent="1">
          <mxGeometry x="385" y="930" width="110" height="60" as="geometry" />
        </mxCell>
        <mxCell id="qHStDZmqYdV4NOPsDdrF-33" value="" style="endArrow=classic;html=1;rounded=0;exitX=0.5;exitY=1;entryX=0.5;entryY=0;" edge="1" parent="1" source="qHStDZmqYdV4NOPsDdrF-16" target="qHStDZmqYdV4NOPsDdrF-32">
          <mxGeometry width="50" height="50" relative="1" as="geometry">
            <mxPoint x="400" y="610" as="sourcePoint" />
            <mxPoint x="450" y="560" as="targetPoint" />
          </mxGeometry>
        </mxCell>
        <mxCell id="qHStDZmqYdV4NOPsDdrF-34" value="" style="endArrow=classic;html=1;rounded=0;exitX=0.5;exitY=1;entryX=0.25;entryY=0;" edge="1" parent="1" source="qHStDZmqYdV4NOPsDdrF-18" target="qHStDZmqYdV4NOPsDdrF-32">
          <mxGeometry width="50" height="50" relative="1" as="geometry">
            <mxPoint x="105" y="710" as="sourcePoint" />
            <mxPoint x="155" y="660" as="targetPoint" />
          </mxGeometry>
        </mxCell>
        <mxCell id="qHStDZmqYdV4NOPsDdrF-35" value="" style="endArrow=classic;html=1;rounded=0;exitX=0.5;exitY=1;entryX=0.4;entryY=0;" edge="1" parent="1" source="qHStDZmqYdV4NOPsDdrF-20" target="qHStDZmqYdV4NOPsDdrF-32">
          <mxGeometry width="50" height="50" relative="1" as="geometry">
            <mxPoint x="280" y="710" as="sourcePoint" />
            <mxPoint x="330" y="660" as="targetPoint" />
          </mxGeometry>
        </mxCell>
        <mxCell id="qHStDZmqYdV4NOPsDdrF-36" value="" style="endArrow=classic;html=1;rounded=0;exitX=0.5;exitY=1;entryX=0.75;entryY=0;" edge="1" parent="1" source="qHStDZmqYdV4NOPsDdrF-24" target="qHStDZmqYdV4NOPsDdrF-32">
          <mxGeometry width="50" height="50" relative="1" as="geometry">
            <mxPoint x="770" y="630" as="sourcePoint" />
            <mxPoint x="820" y="580" as="targetPoint" />
          </mxGeometry>
        </mxCell>
        <mxCell id="qHStDZmqYdV4NOPsDdrF-37" value="" style="endArrow=classic;html=1;rounded=0;exitX=0.5;exitY=1;entryX=0.65;entryY=0;" edge="1" parent="1" source="qHStDZmqYdV4NOPsDdrF-28" target="qHStDZmqYdV4NOPsDdrF-32">
          <mxGeometry width="50" height="50" relative="1" as="geometry">
            <mxPoint x="770" y="710" as="sourcePoint" />
            <mxPoint x="820" y="660" as="targetPoint" />
          </mxGeometry>
        </mxCell>
        <mxCell id="qHStDZmqYdV4NOPsDdrF-38" value="" style="endArrow=classic;html=1;rounded=0;exitX=0.5;exitY=1;entryX=0.6;entryY=0;" edge="1" parent="1" source="qHStDZmqYdV4NOPsDdrF-30" target="qHStDZmqYdV4NOPsDdrF-32">
          <mxGeometry width="50" height="50" relative="1" as="geometry">
            <mxPoint x="605" y="710" as="sourcePoint" />
            <mxPoint x="655" y="660" as="targetPoint" />
          </mxGeometry>
        </mxCell>
        <mxCell id="qHStDZmqYdV4NOPsDdrF-39" value="Stop" style="ellipse;whiteSpace=wrap;html=1;aspect=fixed;" vertex="1" parent="1">
          <mxGeometry x="400" y="1030" width="80" height="80" as="geometry" />
        </mxCell>
        <mxCell id="qHStDZmqYdV4NOPsDdrF-40" value="" style="endArrow=classic;html=1;rounded=0;exitX=0.5;exitY=1;entryX=0.5;entryY=0;" edge="1" parent="1" source="qHStDZmqYdV4NOPsDdrF-32" target="qHStDZmqYdV4NOPsDdrF-39">
          <mxGeometry width="50" height="50" relative="1" as="geometry">
            <mxPoint x="440" y="810" as="sourcePoint" />
            <mxPoint x="490" y="760" as="targetPoint" />
          </mxGeometry>
        </mxCell>
      </root>
    </mxGraphModel>
  </diagram>
</mxfile>
